<?xml version="1.0" encoding="utf-8"?>
<!-- Svg Vector Icons : http://www.sfont.cn -->
<!DOCTYPE svg PUBLIC "-//W3C//DTD SVG 1.1//EN" "http://www.w3.org/Graphics/SVG/1.1/DTD/svg11.dtd">
<svg version="1.1" xmlns="http://www.w3.org/2000/svg" xmlns:xlink="http://www.w3.org/1999/xlink" x="0px" y="0px" viewBox="0 0 1000 1000" enable-background="new 0 0 1000 1000" xml:space="preserve">
<metadata> Svg Vector Icons : http://www.sfont.cn </metadata>
<g><path d="M898.9,990c-0.9,0-1.9,0-2.9,0c-134.7,0-269.5,0-404.2,0c-3.2,0-5-0.8-6.1-4.1c-2.1-6.3-5.9-5.8-10.9-1.3c-1.4,1.3-2.1,3.4-3.2,5.3c-123.4,0-247.1,0-370.6,0c0-7.3,0-14.5,0-21.7c0-0.9,0-1.9,0-2.8c0.2-8.3,0.2-16.6,0.7-24.8c0.6-9.7,1.3-19.5,2.5-29.1c3.3-26.7,8-53.1,17.3-78.5c6.7-18.4,15.5-35.7,27.4-51.2c4.5-5.9,9.5-11.4,14.7-16.6c9-8.8,19.2-16.2,30.3-22.3c8.2-4.5,16.4-9.2,25-13c14.8-6.7,29.9-12.8,44.9-19.2c3.8-1.7,7.6-3.5,11.1-5.8c3.8-2.5,5.7-6.5,7.1-10.8c2.3-7.3,7.1-12.9,12.9-17.9c13-11.2,27.8-20.3,39.1-33.4c3.8-4.4,7.5-8.8,11.6-12.8c8.6-8.5,17.7-16.4,29.4-20.7c1.6-0.6,3.3-1.4,5-1.4c3.8,0.1,4.1-2.4,4.2-5c0.4-13.5-2.3-26.5-8.1-38.6c-4.3-9-9.3-17.7-13.7-26.7c-5.5-11.2-10.7-22.5-16.1-33.7c-0.9-1.9-1.9-3.9-3.2-5.5c-1.1-1.3-2.5-2.9-4.1-3.3c-9.7-2.4-15.9-8.8-20.6-17.2c-8.8-15.5-17.8-30.9-26.3-46.6c-4.5-8.3-8.2-17.2-8.8-26.8c-0.4-6.2-0.2-12.5,0-18.8c0.1-4.1,0.2-4.4-3.8-4.9c-2.2-0.3-2.6-1.6-2.5-3.5c0.2-6.9,0.7-13.9,0.5-20.8c-0.2-5.2-1.3-10.4-2-16.3c-2.6,1.3-4.2,2.3-5.9,3.1c-3.4,1.6-5.8,0.2-5.6-3.4c0.3-5.5,0.8-11.1,1.2-16.6c0.2-2.2-0.2-3.6-3.1-2.6c-1.7,0.6-3.8,0.4-5.6,0c-2.3-0.5-4.4-1.2-3.3-4.7c2.3-7,4.1-14.2,6-21.4c0.6-2.4,0.8-5,1.3-7.8c-1.2-0.1-2-0.4-2.7-0.2c-1.9,0.6-4.4,1.4-5.2-0.8c-0.7-2-0.1-4.6,0.5-6.8c0.4-1.5,1.6-2.9,2.8-4.8c-4.3-0.5-7.8-1-11.3-1.4c-3.2-0.4-4.2-1.4-2.7-4.4c2.2-4.4,5-8.6,7.7-12.7c1.5-2.4,3.3-4.6,5.2-7.1c-3.2-1.2-6.1-2-8.9-3.2c-4.8-2.1-5-4.9-0.8-8.1c2.2-1.6,4.4-3.3,6.6-5c0.6-0.5,1.1-1.2,2.3-2.5c-3.9-1.1-7.2-2.1-10.5-3.1c-0.9-0.3-1.8-0.3-2.6-0.7c-2.9-1.2-3.3-2.4-2-5.3c2.3-5.2,6-9.1,10.2-12.8c3.8-3.4,6.8-7.7,10-11.7c3-3.9,5.8-7.9,8.8-11.9c-0.8-0.8-1.8-2-3-3c-3.6-2.7-3.8-6.5,0.2-8.8c3-1.8,6.4-3,9.6-4.5c0.9-0.4,1.7-1,3.1-1.9c-2.7-1-4.6-1.7-6.6-2.4c-0.1,0-0.2,0-0.3,0c-2.1-1.5-5.2-2.6-6-4.6c-0.6-1.5,1.2-4.7,2.8-6.2c2.7-2.5,6.4-4,9.2-6.5c4.5-4,8.7-8.4,12.9-12.8c4.7-4.9,9.2-10,13.8-15c0.3-0.3,0.5-0.6,1.2-1.5c-2-0.8-3.6-1.6-5.4-2c-1.7-0.4-3.4-0.5-5.2-0.7c-2.2-0.2-3.7-1.3-4.2-3.3c-0.6-2.3,0.7-3.8,2.7-4.9c6.4-3.6,13.2-5.8,20.3-7.3c5.3-1.2,10.8-1.8,16.1-3.4c9.5-2.9,17.6-8.8,26-14c7.7-4.7,15.1-10.1,23.9-12.7c2.9-0.9,6-1.6,9.2-2.4c-3.4-8.6-9.5-15.5-10.3-24.7c7-0.8,13.5,0.8,19.8,2.6c7.4,2.1,14.8,3,22.5,1.3c-2.1-7.4-6.7-14.4-4-23c6.1,0.4,11.1,3.3,15.9,6.6c5.7,4,11.1,8.5,18.3,9.1c1.3,0.1,3.1-0.5,3.8-1.4c4.2-5.4,8.2-10.9,12.1-16.5c3-4.4,6.4-8.3,11.8-9.7c0.5-0.1,1-0.3,1.5-0.4c0.5-0.1,1,0,1.4,0c-1.3,7.8-2.6,15.5-4,23.8c2.3-0.4,4.4-0.4,6.3-1.1c5.9-2.2,11.8-4.4,17.6-6.9c6.3-2.7,12.4-5.6,18.7-8.3c1.2-0.5,2.5-0.5,4-0.8c1.4,4.9-2.4,8-3.8,12.1c2.8,0,5.4-0.2,7.9,0c8.4,0.8,16.7,1.6,25.1,2.6c6.8,0.8,13.5,1.9,20.3,3c9.5,1.6,18.8,0,27.9-2.4c2.2,4.6-3.6,5.9-3.9,9.9c9.3-1.2,18.4-2.4,27.8-3.6c0.6,6.4-3.9,9.5-6.9,13.8c2.9,2.3,5.9,4.5,8.8,6.8c3.7,3,7.3,5.9,10.9,9c6.3,5.5,12.3,11.3,18.7,16.6c1.9,1.6,4.9,2.3,7.5,2.7c13.9,2.2,27.9,3.5,41.4,7.7c0.7,3.3-1.2,5.4-3.6,6.6c-5,2.5-10.3,4.7-15.9,7.2c2.6,3.8,5.2,7.6,7.9,11.4c7.7,10.7,15.5,21.3,23.1,32c1.9,2.7,3.3,5.9,4.8,8.9c0.3,0.7,0.5,2,0.1,2.4c-0.5,0.5-1.7,0.7-2.5,0.5c-1.6-0.2-3.1-0.8-5.1-1.4c1.4,3.6,2.7,6.7,3.9,9.9c3.1,8.3,6.1,16.6,9.3,24.8c1,2.6,2.6,5.1,4.2,7.4c2.7,3.8,2.6,4.5-1.5,6.9c-0.4,0.2-0.7,0.5-1.3,0.9c5.6,12.1,11.1,24,16.7,36.3c-6.3,0.5-11.5-5.1-18-2.6c0.4,4.8,0.4,9.8,1.2,14.6c1.3,7.6,3.1,15.1,4.9,22.6c0.4,1.8,1.5,3.6,2.4,5.3c1.2,2.2,0.6,3.6-1.8,4c-1.9,0.3-3.9,0.5-5.7,0.2c-2.1-0.4-3.3-0.1-3.7,2.2c-0.5,3.2-1.2,6.4-1.8,9.6c-0.1,0.5-0.2,1.1,0,1.5c1.4,2.9,1.5,5.2-1.3,7.5c-2.3,2-4.4,3.6-7.9,3.3c1,6.4,2,12.5,2.7,18.7c0.2,2-0.2,4.1-0.7,6.1c-0.1,0.5-2.3,1.1-2.8,0.7c-1.4-1-2.4-2.5-3.3-3.5c0,2.7,0,5.8,0,8.9c0,7.1-1.5,13.8-5,20c-0.3,0.6-0.2,1.5,0,2.2c2.5,10.1,4.2,20.2,3.8,30.7c-0.3,8.2-2.6,15.6-6.9,22.5c-4.2,6.7-8.9,13.1-12.3,20.1c-3.6,7.5-6.1,15.5-9,23.3c-2.5,6.7-5.5,13.2-12.2,16.6c-3.6,1.8-7.9,3.1-11.9,3.1c-4.4,0-6.9,1.6-9,5c-4.7,7.5-7.6,15.8-10,24.2c-3.5,12.3-8.6,23.9-15.4,34.8c-4.6,7.4-9.4,14.8-13.1,22.7c-3.6,7.6-3.6,16-2,24.4c9.8,0.3,19.1,1.7,28.1,5.1c7.9,3,15,7.2,21.5,12.6c11.3,9.5,19.6,21.2,26,34.2c6.1,12.6,11.6,25.5,17.4,38.3c2.3,5.1,4.5,10.3,6.7,15.4c0.2,0.5,0.6,0.9,1,1.3c6.7,5.5,13.5,11,20.3,16.4c7.6,6,16.4,9.9,25.7,12.5c13.3,3.8,25.2,10.3,36.7,17.7c13.4,8.7,27,17.1,40.1,26.3c7.8,5.4,15.2,11.6,21.9,18.4c8.4,8.5,13.3,19.4,17.7,30.5c7.4,18.5,12.4,37.6,17.2,56.8c3.1,12.4,5.1,25.1,7.1,37.8c1.5,9.2,2.3,18.5,3.2,27.7c0.6,6.6,1,13.1,1.2,19.7C899.1,975.3,898.9,982.5,898.9,990z M652.4,478.2c7.5,0.9,13.2-2,16.2-8.4c1.5-3.1,2.7-6.4,3.6-9.7c4.2-15.7,13.3-28.8,21.5-42.5c6.3-10.6,10.8-21.6,8.1-34.3c-1.9-9-5.8-16.5-14-21.4c-3.4-2-4.4-2-6.9,1.2c-2.5,3.1-4.9,6.3-7.2,9.5c-3.2,4.5-6.9,9.2-12.3,10.1c-5.1,0.9-7,3-6.9,7.8c0.1,3.4-2.7,4.1-5,4.2c-2.3,0.1-4.3-1.3-4.7-4c-0.6-3.5-1.3-7-1.6-10.6c-0.4-4.6-0.4-9.3-0.7-13.9c-0.2-2.9-1.8-4.6-4.6-5.7c-11.1-4.4-22.7-6.7-34.6-7.3c-13.9-0.6-27.8,0-41.5,3c-12.1,2.6-23.8,6.3-34.5,12.8c-0.8,0.5-1.9,1.4-1.9,2.1c-0.1,7.9-0.3,15.8,0,23.7c0.2,3.6-0.2,5.1-3.6,6.2c-3.7,1.1-6.7,0-7.8-3c-2.5-7.1-2.1-14.6-2.5-21.9c-0.1-1.7,0.5-3.4,0.8-5.5c-11.5-1.6-22.3-0.3-32.6,1.9c0,7.1,0.1,13.8,0,20.5c0,3.2-0.8,6.3-3.3,8.6c-2.5,2.3-4.8,1.9-5.3-1.4c-1-5.4-1.3-10.9-2-16.4c-0.4-3.5-0.7-7.1-1.4-10.6c-0.2-1.2-1.2-2.7-2.3-3.1c-13.3-5.4-26.9-10-41.1-12.6c-6.6-1.2-13.4-2.1-20.1-2.5c-6.1-0.4-12.4-0.7-18.4,0.3c-7.1,1.2-14.1,3.3-20.7,6.1c-4.7,2-9.2,5.1-12.9,8.6c-4.6,4.4-3,10.5-2.5,16.1c0.5,5.4,1.8,10.7-0.1,15.9c-6.1,0-12,0-18.4,0c1.9,12.1,3.2,24.3,5.7,36.3c3.2,15.6,6.7,31.3,11.3,46.5c3.8,12.7,9.1,24.9,14,37.1c5.7,14.1,14.3,26.5,25,37.4c4.5,4.5,9.1,8.9,13.8,13.2c6.1,5.6,12.1,11.2,18.4,16.5c8.9,7.4,18.7,13.6,29.4,18.2c19.7,8.4,40.3,11.1,61.5,8.9c12.7-1.3,25-4.1,36-11.1c5.2-3.3,10.8-6,16-9.1c9.3-5.5,18.4-11.3,26-19.1c6.8-7,13.5-14.2,19.4-22c6.6-8.7,12.8-17.8,18.3-27.3c7.5-12.9,12-27.2,15.8-41.5c5.5-20.6,10.5-41.3,15.6-61.9c1.8-7.2,0.5-14.4,0.2-21.7c-0.2-5.1,0.4-10.2,1.3-15.2c0.3-1.6,2.7-2.8,4.1-4.1c1.2,1.4,2.5,2.7,3.7,4.1c0.2,0.2,0.2,0.6,0.4,1.1c2.6-6.9,8.6-8.6,14.7-10.3c-1,2-2.3,3.8-3.7,5.5c-3.8,4.7-7.8,9.3-9.6,15.3c-1.3,4.2,0,8.2,2.9,9.7c0.3-2,0.3-4.1,1-5.9c0.3-0.9,1.8-1.7,2.8-1.9c0.6-0.1,1.9,1.2,2,1.9c0.5,5.1,1.1,10.2,1,15.2c0,4.5-0.8,9.1-1.3,13.1c1.2,0,2.4,0,3.6,0c-0.2,1.1-0.4,2.2-0.7,3.2c-0.3,1-0.6,2-1.3,2.8c-0.8,0.8-1.9,1.6-2.9,1.8c-0.6,0.1-1.4-1.1-1.8-1.4c-1.7,1.8-3.4,3.9-5.5,5.6c-0.7,0.6-3.1,0.5-3.3-0.1c-0.5-1-0.3-2.6-0.1-3.8c0.1-0.8,0.7-1.5,1.1-2.3c-3.9,2.3-6.8,10.8-6.5,17.1c5.4,2.3,5.5,2.3,8.4-2.6c0.2-0.3,0.2-0.7,0.5-0.8c1.3-0.8,2.7-1.5,4.1-2.2c0.3,0.3,0.5,0.6,0.8,0.9c-0.8,5.3-2.3,10.2-6.4,14c-1.8,1.7-3.9,2.1-6.2,0.2c-4.3-3.4-4.4-3.3-5.6,1.9C654.2,469.4,653.4,473.7,652.4,478.2z M505.9,942.8c3.2-5.1,6.4-9.5,8.9-14.2c7-13.3,10.4-27.9,14.2-42.3c3.8-14.1,7.8-28.1,17.3-39.6c7.3-8.9,15.4-17.1,23.1-25.7c6.4-7.1,13.1-14,18.8-21.6c20.3-26.7,30.6-57.8,37.9-90.1c0.2-1-0.6-2.7-1.5-3.5c-3-2.5-6.3-4.7-9.4-7.1c-9.9-7.6-18.4-16.5-20.3-29.4c-1.2-8.2-1.9-16.7-1.6-25c0.4-11.6,1.9-23.1,2.9-34.7c0.7-8.1,1.2-16.3,1.9-25.1c-1.7,0.6-2.7,0.9-3.7,1.3c-11.5,5-20.7,13.3-30.5,20.8c-9.9,7.7-20.6,13.6-33,16.5c-15.1,3.5-30.3,3.6-45.5,2.8c-8.3-0.4-16.7-1.9-24.7-4c-14.2-3.7-26.1-11.9-37.9-20.1c-9.8-6.9-19.8-13.6-31.5-17.6c0,1.4-0.1,2.6,0,3.9c1.3,13.8,2.8,27.7,3.9,41.5c0.9,10.7,0.9,21.4-1.7,31.9c-1.7,6.9-3.8,13.6-9.7,18.4c-5.7,4.6-11.5,9.2-17.3,13.8c-4,3.2-7.7,6.7-7.8,12.1c0,5.6-0.1,11.3,0.9,16.7c3.6,19.7,10.2,38.5,19.9,55.9c6.5,11.6,13.6,23.2,25.4,30.2c8.1,4.8,16.8,8.4,25.5,12.1c10.8,4.7,21.5,9.5,29.3,18.8c19.6,23,33.7,48.6,37.5,79.2C498.2,926.9,500.7,934.7,505.9,942.8z M653.4,358.9c0.4-0.2,0.8-0.4,1.3-0.6c0-6.7,0.9-13.5-0.2-20c-1.9-10.6-4.7-21.2-7.8-31.5c-4.3-14-9.4-27.8-9.3-42.8c0-0.6-0.4-1.4-0.8-1.9c-6.5-8.4-13.1-16.8-19.7-25.2c-1.9-2.3-4.2-4.2-6.3-6.3c-0.3,0.2-0.5,0.4-0.8,0.6c0.1,6.9,3.3,14-1.2,21.3c-2.6-3.5-5-6.5-7.2-9.6c-2.2-3.1-4.3-6.4-6.5-9.5c-2.2-3.1-4.4-6.3-6.7-9.3c-2.3-2.9-4.7-5.6-7.1-8.4c-0.1,4.7,1.9,9.1-1.4,13.4c-21-16.3-41.5-32.8-64.8-45.4c0.6,1.4,1.5,2.4,2.5,3.4c4,4,8.3,7.9,12.1,12.1c2,2.3,3.5,5.1,4.9,7.8c0.9,1.8,0.4,3.6-2.1,3.6c-4,0-8.2,0.4-12.1-0.3c-6-1-11.8-2.8-17.8-4.4c0.1,2.2-1.2,2.5-3.2,1.8c-2.3-0.8-4.8-1.4-7-2.4c-9.3-4.1-18.4-8.4-27.7-12.5c-6.7-3-6.7-2.9-11.2,2.7c-0.9,1-1.7,2.1-2.6,3.1c-9.9,11.9-19.4,24.1-31.4,34.1c-0.8,0.7-1.9,1-2.8,1.5c-0.5-1.1-1.2-2.1-1.5-3.3c-0.4-1.6-0.5-3.3-0.8-5.7c-1,1.5-1.5,2.3-2.1,3.2c-3.1,4.9-6,9.9-9.2,14.8c-4.1,6.1-8.7,11.7-15.3,15.2c-2.8,1.5-5.9,2.4-8.9,3.5c-0.2-0.3-0.4-0.6-0.6-0.9c1.1-2.9,2-5.8,3.2-8.7c2.1-5.1,2.3-6.2,1.3-8.7c-10,16.1-21.4,31.5-22.6,51.5c-4.8-1.2-3.5-6.4-5.9-8.2c-2.1,4.4-4.2,8.6-6.3,12.9c-2,4.3-4.9,8.4-5.8,12.9c-1.5,7.6-1.9,15.4-2.7,23.1c-0.8,8.1-1.3,16.3-2.6,24.4c-0.7,4.3-3,8.4-4.5,12.5c2.9,0,6,0,8.4,0c1.7-4,2.7-7.9,4.8-11.1c4.9-7.6,12.9-10.8,21.2-13c18.6-5,37.7-5.4,56.8-3.9c15.3,1.2,29.8,5.6,43.4,12.7c4.2,2.2,7.7,3.6,12.8,2c8.2-2.6,16.8-0.6,25.3,0.1c9.3,0.9,18.4,0.8,26.7-4.6c12.2-8.1,26.3-10.1,40.3-11.8c12-1.5,24-1.8,36-0.8c13,1,25.8,3.4,38.2,7.4c2.8,0.9,4.3,2.4,5,5.1C651.6,356.4,652.7,357.6,653.4,358.9z M321.4,384c-2.7-1.8-5.8-3.8-8.9-5.8c-2.5-1.5-4.9-3.2-7.5-4.2c-3.4-1.3-7.1-0.5-8.2,1.4c-5.5,9.9-7.8,20.4-5.7,31.7c1.9,10.7,7,20,12.4,29.2c6.3,10.7,12.3,21.5,18.5,32.3c1.9,3.2,3.9,6.4,6.3,9.2c2.8,3.4,6.4,5.7,10.8,6.2c-1.5-8.1-2.9-16-4.4-23.9c-1-4.9-1.1-5-5.8-3.2c-2.3,0.9-4.3,1.2-5.4-1.6c-0.8-2.2,0.9-4.5,3.7-5.1c1.7-0.3,3.5-0.5,5.7-0.8c-2.7-3.5,0.6-10.2-7.2-11.2c0.5,1.3,1,2.1,1.1,2.8c0.2,1.4,0.3,2.9,0.4,4.3c-1.5-0.4-3-0.7-4.4-1.2c-0.4-0.1-0.8-0.7-1.1-1c-5.8-6.4-8.4-14-8.1-22.5c0.2-4.8,1.9-9.1,8-11.4c-0.2,2.8-0.5,4.9-0.6,7.1c-0.1,2.3,0,4.5,0,7c2.2-1.2,3.7-2,4.6-2.5C323.9,408.6,322.7,396.4,321.4,384z M339.8,144.8c10.9-13.3,26.4-21.2,39.4-32.8c-7.5,3.6-14.3,7.2-21.3,10.2c-3,1.3-6.6,1.4-10,1.8c-0.7,0.1-1.8-0.7-2.1-1.4c-0.2-0.4,0.5-1.5,1-2c1.9-1.8,4-3.4,6.4-5.4c-3.1-0.9-5.3,0.5-6.8,2.1c-7.2,7-14.2,14.2-21.2,21.4c-0.8,0.8-1.4,1.8-2.1,2.6c0.2,0.2,0.4,0.4,0.6,0.6c5-3.6,10-7.2,15-10.8C342.5,137.3,342.5,137.3,339.8,144.8z M465.4,912c0-3.6-2.4-7-5.1-6.9c-2.8,0.1-6.9,4.2-6.8,7c0.1,2.7,3.1,6.8,5,6.7C462.9,918.8,465.4,916.4,465.4,912z M665.7,429.3c4.3,1.4,4.7-1.8,5.4-4.1c1.7-5.7,1-7.7-3.7-9.8C666.7,420.1,666.2,424.7,665.7,429.3z M328.8,431.8c-0.1-1.1,0-2.2-0.3-3.2c-0.2-0.5-1.5-1.2-1.7-1.1c-1.7,1.2-3.2,2.7-5,4.3C324.3,431.8,326.3,431.8,328.8,431.8z M465.4,912c0,4.4-2.4,6.8-6.8,6.8c-1.9,0-4.9-4.1-5-6.7c-0.1-2.8,3.9-6.9,6.8-7C462.9,905.1,465.4,908.4,465.4,912z M665.7,429.3c0.6-4.7,1.1-9.2,1.7-13.9c4.7,2.1,5.5,4.2,3.7,9.8C670.3,427.5,670,430.7,665.7,429.3z M328.8,431.8c-2.5,0-4.5,0-7.1,0c1.8-1.6,3.4-3,5-4.3c0.2-0.2,1.6,0.5,1.7,1.1C328.8,429.6,328.7,430.8,328.8,431.8z M596.2,364.8c0.8,7.3,1.6,14.1,2.4,21.3c3.6,1.6,3.9,1.5,0.4,5.6c-3.2,3.8-7.7,5.3-12.5,5.6c-9.2,0.6-18.3-0.3-26.7-4.4c-2.7-1.3-5.2-3.2-7.8-4.9c0.2-0.4,0.3-0.9,0.5-1.3c2.8,0.1,5.5,0.3,8.5,0.4c-1.8-5.4-3.9-10.6-2.1-16.3c-0.2-0.2-0.5-0.5-0.7-0.7c-4.4,4.2-8.9,8.4-12.8,12.1c1.1,2,2,3.7,3,5.5c-0.3,0.4-0.6,0.7-0.9,1.1c-3.8-0.8-7.6-1.6-11.5-2.4c3.2-10.5,10-17.7,19.2-23.1c11.3-6.6,23.6-8.5,36.3-7.1c11,1.2,20.9,6.2,29.9,12.6c4.3,3.1,8.5,6.4,12.4,10c1.7,1.5,2.5,3.9,4.1,6.5c-9.3,0.9-17.7,1.8-26,2.5c-1.3,0.1-2.7-0.2-3.9-0.7c-1-0.4-1.8-1.4-2.7-2.1c0.9-0.9,1.6-2.4,2.7-2.7c3-0.9,6.1-1.3,9.2-2c0.6-0.1,1.1-0.4,2.3-0.8C613.4,371.3,604.5,368.6,596.2,364.8z M575.2,368c-1,0-2.1-0.2-3.1,0c-2.7,0.8-6.1,1.5-6.6,4.6c-0.3,1.8,0.9,4.6,2.3,5.8c4.6,3.9,10.5,0.7,11.9-3.9C581.3,369.2,580.5,368.1,575.2,368z M445.6,388.6c-0.7-7.7-5.9-11.1-11.4-14.8c-0.2,3.1-0.5,6-0.7,8.8c-0.3,2.9-0.6,5.8-0.9,8.8c2-0.2,4.7-0.4,7.4-0.6c0.1,0.4,0.2,0.8,0.3,1.2c-3.3,3.5-7.5,5.6-12,7.1c-6.6,2.3-13.4,3-20.4,2.5c-5.5-0.4-10.7-1.6-14.8-5.8c-2.2-2.3-1.9-3.5,0.8-5c0.7-0.4,1.4-1.9,1.2-2.7c-1.4-5.8-1.2-11.5,0.7-17.3c-2.4-2.2-5.1-0.7-7.5-0.1c-6.8,1.7-12.2,5.9-17.9,11.4c2.4,0.6,4.3,1.1,6.1,1.5c3.2,0.7,6.4,1.3,9.5,2.2c0.6,0.2,1.3,1.4,1.2,2c-0.2,0.6-1.2,1.3-1.9,1.4c-8.1,0.5-16-0.4-23.6-3.1c-0.4-0.1-0.7-0.5-1.1-0.8c2.7-7.6,8-12.8,14.8-16.5c8.2-4.5,16.9-6.7,26.2-7.7c10.6-1.1,20.9-0.2,30.9,3.3c7.6,2.6,14.3,6.6,18.5,13.9c0,0.1,0.2,0.1,0.2,0.2c0.8,2.8,1.5,5.6,2.3,8.4C451,387.4,448.6,388,445.6,388.6z M416.6,372.1c-3.6-0.3-6.9-0.8-10.3-0.8c-1.3,0-3,0.6-3.7,1.6c-1.5,2.2-1.1,5,0.7,6.8c1.7,1.7,3.8,3.3,6.7,2.4C414.3,380.6,416.7,377.1,416.6,372.1z M560.9,523.9c-15.2,3.6-30.4,7.3-45.7,10.9c-7.5,1.8-15.1,1.1-22.6,0.2c-11.2-1.4-22.3-3.2-33.5-4.5c-4.2-0.5-8.5,0.2-12.7,0.1c-5.9-0.1-8.6-1.9-9.9-6.6c1.3,0,2.5,0,3.7,0c8.3,0,16.6-0.4,24.9,0.1c7.4,0.5,14.8,1.5,22.1,3.1c11.6,2.6,22.7,1.1,34-2.2c7.3-2.1,14.8-3.8,22.3-5.1C549.8,518.9,555.8,520.5,560.9,523.9z M461.6,548.4c25.8,13.2,50.8,7.7,76.4-1.1c-2.5,4.6-6,7.6-9.9,10c-7,4.3-14.8,6.4-22.9,7.1c-11.4,1-22.6,0-32.9-5.5C467.4,556.2,464.1,552.9,461.6,548.4z M683.9,419.7c1.6-3.9,3.1-7.5,4.5-11.2c2.2-5.9,4.5-11.9,3.8-18.3c-0.5-4.9-2-9.7-3-14c5.8,2.6,9.6,12.7,8.1,23.3C695.7,410.9,690.6,418.9,683.9,419.7z M516,493.2c0.4-1.4,0.5-2.2,0.9-2.9c3.6-5.2,8.4-8.5,14.9-8.9c1.5-0.1,3.5,0.3,4.6,1.3c3.5,3.3,3.4,5.2-0.4,7.1C529.9,493.1,523.3,493.9,516,493.2z M482.2,492.6c-3.8,0-7.4,0.3-10.8-0.1c-2.4-0.3-4.7-1.5-7-2.2c-1.6-0.5-2.2-1.4-2.2-3.1c0.1-4.1,0.6-4.8,4.7-5C472.5,482,479.1,486.4,482.2,492.6z M528.8,421.5c5.6,8.8,7.9,18.7,11.7,28.4C532.3,445.7,525.3,431.9,528.8,421.5z M636,411.7c1-1.4,1.9-3,3.1-4.3c2.6-2.7,6-4.9,6.1-9.3c0-0.3,2-1,2.7-0.7c0.8,0.3,1.9,1.6,1.8,2.3c-0.5,4.6-3.1,8-7.2,10.2c-1.9,1-3.9,1.7-5.8,2.5C636.5,412.2,636.2,411.9,636,411.7z M350.3,406.8c4.3,1.4,4.8,4.9,5.8,8.3C351.4,415.1,349.3,412.2,350.3,406.8z M422,707.1c10.8,22.4,15.8,46.9,24.6,70C428.9,757.1,424.6,732.4,422,707.1z M569.9,696.5c0.7,1,2,2,2,3c-0.5,20.3-2.4,40.4-11.4,59.2c-0.5-21,7.1-40.9,8.5-61.7C569.4,696.8,569.6,696.7,569.9,696.5z M361.2,322.9c2.1-4.9,5.7-7.9,10-10.2c8.1-4.5,17-6,26.1-6.3c17.9-0.5,35.2,2.4,51,11.2c5.5,3.1,10.5,7.3,15.2,11.7c2.2,2,3.2,5.4,4.5,8.3c0.3,0.8-0.1,2.5-0.8,2.9c-0.9,0.5-2.3,0.2-3.5,0.2c-0.1,0-0.2-0.1-0.3-0.1c-7.6-6.5-17.4-6.2-26.3-8c-24.6-4.8-49.6-7.6-74.6-9.4C362.2,323.2,361.9,323.1,361.2,322.9z M522.8,337.3c1.1-7.8,5.8-12.8,11.6-17c11.5-8.2,24.6-12.6,38.2-15.8c9.9-2.3,19.8-3.7,29.9-2.1c11.7,1.9,21.1,8.2,29.9,15.9c-2.2,2.8-5,3.9-8.2,3.7c-4.9-0.3-9.7-1.3-14.5-1.4c-5.8-0.1-11.6,0.3-17.3,0.8c-5.6,0.5-11.2,1.4-16.7,2.4c-15.3,2.7-30.9,4.1-44.8,12.2C528.5,337.4,525.9,338.5,522.8,337.3z M308.9,425.6c-1.6-2.2-3.7-4.1-4.7-6.5c-3.6-8.2-3.9-16.7-0.8-25.1c2.8-7.6,8.8-9.2,15.3-4.5c2,1.5,1.9,3.4-0.4,4c-2.1,0.5-4.5,0.5-6.6,0c-1.8-0.4-2.5,0.3-3.2,1.5c-2.2,4-1.9,8.2-1.1,12.4c0.7,3.4,1.7,6.8,2.3,10.3c0.4,2.4,0.4,4.9,0.7,7.3C309.8,425.1,309.3,425.3,308.9,425.6z"/></g>
</svg>